<?xml version="1.0" encoding="UTF-8"?>
<svg version="1.1" xmlns="http://www.w3.org/2000/svg" width="1080" height="1080">
<path d="M0 0 C356.4 0 712.8 0 1080 0 C1080 356.4 1080 712.8 1080 1080 C723.6 1080 367.2 1080 0 1080 C0 723.6 0 367.2 0 0 Z " fill="#171616" transform="translate(0,0)"/>
<path d="M0 0 C20.41816379 -0.71521252 39.28559631 7.36633509 54.59375 20.57421875 C60.66285016 26.3551993 65.81226385 32.81434708 69.83203125 40.19140625 C69.83203125 41.18140625 69.83203125 42.17140625 69.83203125 43.19140625 C70.49203125 43.19140625 71.15203125 43.19140625 71.83203125 43.19140625 C72.1878125 41.90169922 72.1878125 41.90169922 72.55078125 40.5859375 C73.9601598 36.85194371 75.88526504 33.97942073 78.33203125 30.87890625 C78.77708008 30.31276611 79.22212891 29.74662598 79.68066406 29.16333008 C91.68959964 14.24102165 109.64685372 3.3358341 128.7734375 0.4765625 C150.05422113 -1.50746969 170.76320199 3.11607357 187.83203125 16.56640625 C189.52962436 18.07395112 191.19787017 19.61532521 192.83203125 21.19140625 C193.61964844 21.95066406 194.40726563 22.70992187 195.21875 23.4921875 C211.13394803 40.00184114 216.52714488 60.07655435 216.1484375 82.46875 C215.38504563 101.86018105 205.7840446 120.28274478 191.90625 133.5546875 C173.83956072 149.51856134 154.63966644 153.19140625 130.83203125 153.19140625 C130.83203125 132.40140625 130.83203125 111.61140625 130.83203125 90.19140625 C136.77203125 89.69640625 136.77203125 89.69640625 142.83203125 89.19140625 C144.48203125 88.20140625 146.13203125 87.21140625 147.83203125 86.19140625 C148.49203125 86.19140625 149.15203125 86.19140625 149.83203125 86.19140625 C152.15426287 80.38582719 152.60946319 75.44248528 151.14453125 69.31640625 C149.97054315 67.08058447 149.97054315 67.08058447 147.83203125 65.87890625 C142.92876681 64.75524148 137.48820223 63.75664722 132.88671875 66.2421875 C130.73808608 68.00157512 129.07953211 69.69640453 127.83203125 72.19140625 C127.72807795 73.69888894 127.68553916 75.21081512 127.67381287 76.72183228 C127.66402405 77.67538101 127.65423523 78.62892975 127.64414978 79.6113739 C127.63839432 80.6608168 127.63263885 81.7102597 127.62670898 82.79150391 C127.61680939 83.89394943 127.60690979 84.99639496 127.59671021 86.13224792 C127.56502742 89.78996607 127.54031098 93.44769723 127.515625 97.10546875 C127.49506133 99.63610173 127.47406502 102.16673124 127.45265198 104.69735718 C127.40302636 110.68610843 127.35777679 116.67487741 127.31462961 122.66367757 C127.25177462 131.34498194 127.18010749 140.02621428 127.1095047 148.7074585 C127.01141905 160.86873945 126.92261499 173.03005667 126.83203125 185.19140625 C106.04203125 185.19140625 85.25203125 185.19140625 63.83203125 185.19140625 C63.50203125 164.73140625 63.17203125 144.27140625 62.83203125 123.19140625 C59.36703125 127.15140625 59.36703125 127.15140625 55.83203125 131.19140625 C43.87735535 143.97542514 26.99549217 151.04597364 9.83203125 153.19140625 C4.22203125 153.19140625 -1.38796875 153.19140625 -7.16796875 153.19140625 C-7.16796875 132.40140625 -7.16796875 111.61140625 -7.16796875 90.19140625 C-1.22796875 89.69640625 -1.22796875 89.69640625 4.83203125 89.19140625 C9.39921583 87.18461302 12.00887896 85.83832465 13.83203125 81.19140625 C14.42120236 76.914177 14.27742607 73.23808407 12.58203125 69.25390625 C10.1863304 66.43040167 8.10170931 65.36895473 4.4296875 64.85546875 C0.18737414 64.79010183 -2.43607709 64.76446945 -6.16796875 66.94140625 C-9.32939014 70.49800532 -10.41448257 73.1731269 -10.44644165 77.92437744 C-10.45760513 78.87226135 -10.46876862 79.82014526 -10.48027039 80.79675293 C-10.48243057 81.82965454 -10.48459076 82.86255615 -10.48681641 83.92675781 C-10.50188484 85.56623383 -10.50188484 85.56623383 -10.51725769 87.23883057 C-10.54816011 90.85322542 -10.56514466 94.46754596 -10.58203125 98.08203125 C-10.60073719 100.58738853 -10.62031017 103.09273948 -10.64071655 105.5980835 C-10.68685124 111.51946752 -10.72423778 117.44086588 -10.75738943 123.36233306 C-10.8060865 131.94949002 -10.87247254 140.53651333 -10.93670654 149.12356567 C-11.02499961 161.1461382 -11.09470653 173.16869039 -11.16796875 185.19140625 C-31.95796875 185.19140625 -52.74796875 185.19140625 -74.16796875 185.19140625 C-74.32862342 156.09505981 -74.32862342 156.09505981 -74.36898422 141.62763023 C-74.39107083 133.83189409 -74.41902254 126.03633087 -74.46972656 118.24072266 C-74.50987899 112.06439501 -74.5354682 105.8881984 -74.54432273 99.71174383 C-74.54949011 96.44811098 -74.5636107 93.18493522 -74.59088898 89.92140198 C-74.79691433 64.23226835 -71.17726731 42.74637466 -53.16796875 23.19140625 C-38.42486609 8.59324982 -20.526277 1.24018196 0 0 Z " fill="#FEF8F8" transform="translate(635.16796875,513.80859375)"/>
<path d="M0 0 C2.64228202 0.00373839 5.28456545 0.00658145 7.92684937 0.00857544 C14.12053733 0.0147339 20.31415271 0.03106638 26.50780904 0.05127442 C34.26821281 0.07603197 42.02862895 0.08681622 49.7890625 0.09765625 C63.59641037 0.11700312 77.4036004 0.15708856 91.2109375 0.1953125 C91.2109375 26.2653125 91.2109375 52.3353125 91.2109375 79.1953125 C83.8684375 79.23269531 76.5259375 79.27007813 68.9609375 79.30859375 C64.30336215 79.33887737 59.64582482 79.3700279 54.98828125 79.40429688 C47.59914076 79.45858178 40.21007551 79.50969364 32.82080078 79.54174805 C26.86196451 79.56779832 20.90338146 79.60821357 14.94470215 79.65849876 C12.67381953 79.67515569 10.40289312 79.68667726 8.13195801 79.69292641 C4.94577626 79.70257998 1.76024066 79.73065543 -1.42578125 79.76293945 C-2.36014511 79.76150436 -3.29450897 79.76006927 -4.25718689 79.7585907 C-11.30487962 79.85927376 -16.99774778 80.90023151 -22.6015625 85.5078125 C-26.6415636 90.47124242 -28.38361607 94.51423341 -28.13671875 100.890625 C-27.32785396 106.2527624 -24.89948019 110.49308291 -20.8515625 114.0703125 C-14.923933 118.18336154 -9.93639453 119.06561168 -2.7890625 118.1953125 C1.52074501 116.89868665 4.46152165 114.90725756 7.7109375 111.8203125 C10.10849696 106.02621046 10.05763686 100.36617221 9.2109375 94.1953125 C7.42476124 90.07756265 4.35356604 87.3195092 1.2109375 84.1953125 C10.21663013 84.00959013 19.22165942 83.86762653 28.22885227 83.78081512 C32.41180327 83.73913951 36.59344012 83.68265854 40.77563477 83.59179688 C44.81523897 83.5045868 48.85358311 83.45698102 52.89405632 83.43629456 C54.43194348 83.42156232 55.96976497 83.39279069 57.5071125 83.34947205 C69.52242439 83.02451222 69.52242439 83.02451222 73.67521667 85.90402222 C75.4785316 87.92158849 76.86306182 89.85485877 78.2109375 92.1953125 C78.62390076 92.83435516 79.03686401 93.47339783 79.46234131 94.13180542 C80.53989296 95.82207447 81.47941495 97.53922363 82.3984375 99.3203125 C82.73230469 99.96645508 83.06617188 100.61259766 83.41015625 101.27832031 C90.80633205 116.09234039 93.12335057 133.22714501 88.3125 149.30078125 C81.03110769 168.43380147 69.20191642 181.79602213 50.5625 190.4375 C44.23349441 193.14664765 37.5748412 194.64543112 30.79785156 195.76104736 C29.08696345 196.04825407 27.38028255 196.36189208 25.67932129 196.70300293 C13.20144437 198.90671479 0.579792 198.45291591 -12.045856 198.39810038 C-15.45574352 198.38546047 -18.86563588 198.38441221 -22.27554321 198.38204956 C-28.71019141 198.37587326 -35.14477034 198.35951551 -41.57938826 198.33935058 C-49.63624547 198.31465863 -57.69311431 198.30382311 -65.75 198.29296875 C-80.0964079 198.2735808 -94.44266501 198.23350167 -108.7890625 198.1953125 C-108.7890625 171.1353125 -108.7890625 144.0753125 -108.7890625 116.1953125 C-94.9290625 116.1953125 -81.0690625 116.1953125 -66.7890625 116.1953125 C-67.4490625 114.8753125 -68.1090625 113.5553125 -68.7890625 112.1953125 C-69.51496582 112.2173877 -70.24086914 112.23946289 -70.98876953 112.26220703 C-74.29842838 112.33354727 -77.60368131 112.32763635 -80.9140625 112.3203125 C-82.05617188 112.35640625 -83.19828125 112.3925 -84.375 112.4296875 C-92.65706644 112.3333844 -92.65706644 112.3333844 -95.8359375 109.13745117 C-97.42801077 106.54861651 -98.65274844 104.01169183 -99.7890625 101.1953125 C-100.32015625 99.99003906 -100.85125 98.78476562 -101.3984375 97.54296875 C-108.28824296 77.69938522 -109.1586894 59.24309567 -99.9765625 39.8203125 C-97.11018141 34.46111377 -93.79505622 29.75769424 -89.7890625 25.1953125 C-89.20640625 24.51855469 -88.62375 23.84179688 -88.0234375 23.14453125 C-79.85530063 14.30715627 -69.24901131 8.57072846 -57.7890625 5.1953125 C-56.891875 4.92074219 -55.9946875 4.64617187 -55.0703125 4.36328125 C-37.12516498 -0.64065412 -18.45244133 -0.0774411 0 0 Z " fill="#FDF7F7" transform="translate(380.7890625,460.8046875)"/>
<path d="M0 0 C21.12 0 42.24 0 64 0 C64.32242427 33.4201716 64.32242427 33.4201716 64.390625 47.51367188 C64.43794329 57.21348225 64.49331644 66.91273338 64.60351562 76.61206055 C64.68376471 83.67871632 64.73498523 90.74491484 64.75270796 97.81201369 C64.76305294 101.54723362 64.78700469 105.2811466 64.84584045 109.01594353 C65.27787883 137.52758121 65.27787883 137.52758121 57.91784668 149.70191956 C52.55749977 158.91999497 51.93876824 170.67354937 51 181 C34.17 181 17.34 181 0 181 C0 121.27 0 61.54 0 0 Z " fill="#FCF6F6" transform="translate(500,410)"/>
<path d="M0 0 C2.91517292 1.07401108 4.77810176 1.77810176 7 4 C6.9765625 6.8359375 6.9765625 6.8359375 6.625 10.375 C6.04827328 16.94289955 5.89138858 23.41090703 6 30 C7.81457155 27.37642639 9.6263006 24.75090247 11.4375 22.125 C11.95376953 21.37863281 12.47003906 20.63226563 13.00195312 19.86328125 C13.49501953 19.14785156 13.98808594 18.43242187 14.49609375 17.6953125 C14.95169678 17.03547363 15.4072998 16.37563477 15.87670898 15.69580078 C17.05419282 13.99252633 17.05419282 13.99252633 18 12 C20.4375 12.8125 20.4375 12.8125 23 14 C23.495 15.485 23.495 15.485 24 17 C22.62649178 19.41422811 21.21802678 21.61217139 19.625 23.875 C19.17398926 24.53250244 18.72297852 25.19000488 18.25830078 25.86743164 C16.84835978 27.91836676 15.42465388 29.95926637 14 32 C13.10840548 33.29230038 12.21774461 34.58524554 11.328125 35.87890625 C9.22941289 38.92674352 7.11833949 41.96576011 5 45 C2.08482708 43.92598892 0.22189824 43.22189824 -2 41 C-2.13525391 38.38623047 -2.13525391 38.38623047 -1.9765625 35.1171875 C-1.925 33.95058594 -1.8734375 32.78398438 -1.8203125 31.58203125 C-1.75585938 30.35871094 -1.69140625 29.13539063 -1.625 27.875 C-1.56828125 26.64394531 -1.5115625 25.41289062 -1.453125 24.14453125 C-1.31132867 21.0959101 -1.15684521 18.04788397 -1 15 C-4.96 20.61 -8.92 26.22 -13 32 C-17 31 -17 31 -19 30 C-17.59557686 26.1043137 -15.76328238 22.92054459 -13.4375 19.5 C-12.73496094 18.46359375 -12.03242187 17.4271875 -11.30859375 16.359375 C-10.54002645 15.23892151 -9.77045622 14.11915546 -9 13 C-8.58637207 12.39865234 -8.17274414 11.79730469 -7.74658203 11.17773438 C-5.17515739 7.44428994 -2.59161757 3.71945114 0 0 Z " fill="#F4EEEE" transform="translate(841,480)"/>
<path d="M0 0 C5.09299988 2.80716529 7.99672579 6.99017736 9.8125 12.4375 C10.32698832 18.71425752 9.74292664 21.5244667 5.8125 26.4375 C3.8125 25.125 3.8125 25.125 1.8125 22.4375 C1.72265625 19.8984375 1.72265625 19.8984375 1.875 17 C2.01001488 12.96035492 2.03008296 11.78427285 -0.1875 8.25 C-3.9432989 5.9808715 -6.95930868 5.53382774 -11.1875 6.4375 C-15.01300114 8.45851947 -18.13814326 10.56649283 -20.1875 14.4375 C-20.77574747 18.30312626 -20.30170905 20.19537682 -18.625 23.75 C-16.34522382 26.77547796 -16.34522382 26.77547796 -12.4375 27.3125 C-11.365 27.35375 -10.2925 27.395 -9.1875 27.4375 C-9.71018466 24.67473823 -10.29619587 22.1114124 -11.1875 19.4375 C-9.5375 18.7775 -7.8875 18.1175 -6.1875 17.4375 C-5.01536955 19.22559697 -3.84994474 21.01809125 -2.6875 22.8125 C-2.0378125 23.81023438 -1.388125 24.80796875 -0.71875 25.8359375 C0.8125 28.4375 0.8125 28.4375 0.8125 30.4375 C-1.42900624 32.0779154 -3.6553831 33.58412087 -6 35.0625 C-6.96389648 35.69285156 -6.96389648 35.69285156 -7.94726562 36.3359375 C-12.80604454 39.4375 -12.80604454 39.4375 -16.1875 39.4375 C-18.1875 34.6875 -18.1875 34.6875 -18.1875 32.4375 C-19.68581948 31.03534007 -19.68581948 31.03534007 -21.5625 29.625 C-25.41669662 26.37813133 -26.8935525 24.21367087 -27.43359375 19.11328125 C-27.64132745 14.9019527 -27.47216758 12.05427975 -25.6875 8.1875 C-18.6726547 0.47117017 -10.35494776 -4.58912458 0 0 Z " fill="#F5EFEF" transform="translate(886.1875,520.5625)"/>
<path d="M0 0 C1.134375 0.020625 2.26875 0.04125 3.4375 0.0625 C4.96981223 3.5601864 5.81613883 6.69966279 6.2890625 10.484375 C6.41796875 11.51046875 6.546875 12.5365625 6.6796875 13.59375 C6.80601562 14.6559375 6.93234375 15.718125 7.0625 16.8125 C7.1965625 17.85921875 7.330625 18.9059375 7.46875 19.984375 C8.21311654 26.06083651 8.57835321 31.94178764 8.4375 38.0625 C6.4575 37.7325 4.4775 37.4025 2.4375 37.0625 C2.1075 34.4225 1.7775 31.7825 1.4375 29.0625 C-3.1825 28.0725 -7.8025 27.0825 -12.5625 26.0625 C-13.5525 28.5375 -13.5525 28.5375 -14.5625 31.0625 C-14.8925 31.7225 -15.2225 32.3825 -15.5625 33.0625 C-17.8725 32.7325 -20.1825 32.4025 -22.5625 32.0625 C-21.09442964 28.03425249 -19.15533355 24.565102 -16.90234375 20.921875 C-16.5524086 20.35422424 -16.20247345 19.78657349 -15.8419342 19.20172119 C-15.10666297 18.01062467 -14.36952517 16.82067857 -13.63061523 15.63183594 C-12.49632118 13.80658021 -11.3678148 11.97784672 -10.24023438 10.1484375 C-4.01054094 0.07036037 -4.01054094 0.07036037 0 0 Z " fill="#F4EEEE" transform="translate(804.5625,466.9375)"/>
<path d="M0 0 C1.99954746 -0.04254356 4.00041636 -0.04080783 6 0 C7.91337729 1.91337729 7.7809511 5.21226211 8.19140625 7.7734375 C8.35575417 8.79275864 8.35575417 8.79275864 8.52342224 9.83267212 C8.75478413 11.27322804 8.98414263 12.7141069 9.21166992 14.15527344 C9.56005588 16.35953588 9.91524635 18.56261946 10.27148438 20.765625 C12 31.57010525 12 31.57010525 12 35 C9.69 35 7.38 35 5 35 C4.66179834 33.4176994 4.32964061 31.83410625 4 30.25 C3.814375 29.36828125 3.62875 28.4865625 3.4375 27.578125 C3 25 3 25 3 21 C2.25234375 21.144375 1.5046875 21.28875 0.734375 21.4375 C-0.25046875 21.623125 -1.2353125 21.80875 -2.25 22 C-3.22453125 22.185625 -4.1990625 22.37125 -5.203125 22.5625 C-8 23 -8 23 -12 23 C-11.855625 23.58007812 -11.71125 24.16015625 -11.5625 24.7578125 C-10.49110572 29.26659675 -9.76054064 33.33054247 -10 38 C-13.465 38.495 -13.465 38.495 -17 39 C-17.71733942 34.81997165 -18.429246 30.6390645 -19.13623047 26.45727539 C-19.37726778 25.03612587 -19.61976289 23.61522278 -19.86376953 22.19458008 C-20.21514412 20.14728527 -20.56118932 18.09914849 -20.90625 16.05078125 C-21.11572266 14.82012939 -21.32519531 13.58947754 -21.54101562 12.3215332 C-21.93311403 9.48403385 -22.0948144 6.85628383 -22 4 C-18.535 3.505 -18.535 3.505 -15 3 C-14.67 7.62 -14.34 12.24 -14 17 C-12.288125 16.67 -10.57625 16.34 -8.8125 16 C-5.13831064 15.29172253 -1.74341057 14.89050353 2 15 C1.67 13.824375 1.34 12.64875 1 11.4375 C0.0030467 7.4988324 -0.16869203 4.04860871 0 0 Z " fill="#F4EFEF" transform="translate(761,464)"/>
<path d="M0 0 C2.7609626 7.49404133 4.34722562 15.01381068 4 23 C2.33388095 23.042721 0.66617115 23.04063832 -1 23 C-3.01481734 20.98518266 -2.7214027 17.20923137 -3.0625 14.4375 C-3.15337891 13.72658203 -3.24425781 13.01566406 -3.33789062 12.28320312 C-3.56239503 10.52261597 -3.78168397 8.76136522 -4 7 C-6.31 7.66 -8.62 8.32 -11 9 C-10.67 13.95 -10.34 18.9 -10 24 C-11.98 24.33 -13.96 24.66 -16 25 C-17.46670113 19.77487721 -18.22577402 15.4185766 -18 10 C-22.455 10.495 -22.455 10.495 -27 11 C-26.7834375 11.96421875 -26.566875 12.9284375 -26.34375 13.921875 C-26.0653125 15.18515625 -25.786875 16.4484375 -25.5 17.75 C-25.2215625 19.00296875 -24.943125 20.2559375 -24.65625 21.546875 C-24 25 -24 25 -24 29 C-25.98 29 -27.96 29 -30 29 C-30.67511172 26.29352533 -31.34027341 23.58522815 -32 20.875 C-32.19078125 20.11445312 -32.3815625 19.35390625 -32.578125 18.5703125 C-33.60810251 14.30326282 -34.33092665 10.42614397 -34 6 C-31.16175014 3.16175014 -24.20074944 3.17100835 -20.375 2.4375 C-19.19808594 2.20353516 -18.02117188 1.96957031 -16.80859375 1.72851562 C-11.12761988 0.63257972 -5.78999084 -0.33109918 0 0 Z " fill="#F3EEEE" transform="translate(909,565)"/>
<path d="M0 0 C3.4375 1.5 3.4375 1.5 6 3 C6 3.99 6 4.98 6 6 C3.5 7.6875 3.5 7.6875 1 9 C0.67 8.67 0.34 8.34 0 8 C-3.99135276 7.61621608 -6.36619076 7.66286742 -9.9375 9.5625 C-12.26433048 11.89527622 -12.26433048 11.89527622 -12.5625 15.25 C-11.71844329 20.87704473 -9.97993965 25.23410788 -5.6875 29.0625 C-1.19657648 30.62910123 2.60470526 29.46509825 7 28 C7.65828563 25.98759984 7.65828563 25.98759984 7.9375 23.625 C8.76705142 19.24022823 8.76705142 19.24022823 11 16.9375 C13 16 13 16 15 16 C16.77817951 19.55635901 15.9882927 23.24939851 15 27 C11.9599404 32.35337094 7.91549253 35.26614874 2 37 C-2.17076924 37.64788648 -5.28256099 37.3587195 -9.125 35.4375 C-13.77576003 31.49446432 -18.51230397 27.0995537 -20 21 C-20.44429957 15.40182544 -20.30188336 11.74645733 -17 7 C-11.41491602 2.12304528 -7.58931401 -0.50595427 0 0 Z " fill="#F4EEEE" transform="translate(715,481)"/>
<path d="M0 0 C0.33 0 0.66 0 1 0 C1.33 4.95 1.66 9.9 2 15 C-2.455 14.01 -2.455 14.01 -7 13 C-5.37621488 8.27626146 -2.89006982 4.05818166 0 0 Z " fill="#232222" transform="translate(803,475)"/>
</svg>
