<svg width="12" height="14" viewBox="0 0 12 14" fill="none" xmlns="http://www.w3.org/2000/svg">
<g filter="url(#filter0_b_4_4)">
<mask id="path-1-outside-1_4_4" maskUnits="userSpaceOnUse" x="-1" y="-1" width="14" height="16" fill="white">
<rect fill="white" x="-1" y="-1" width="14" height="16"/>
<path d="M0.24 0.4H11.24V3.84H10.68L10.04 1.62C10 1.44667 9.95333 1.32667 9.9 1.26C9.86 1.18 9.77333 1.13333 9.64 1.12C9.50667 1.10667 9.28 1.1 8.96 1.1H6.94V12.32C6.94 12.7733 6.96 13.0467 7 13.14C7.04 13.22 7.16667 13.2733 7.38 13.3L8.48 13.44V14H3V13.44L4.1 13.3C4.31333 13.2733 4.44 13.22 4.48 13.14C4.52 13.0467 4.54 12.7733 4.54 12.32V1.1H2.52C2.21333 1.1 1.98667 1.10667 1.84 1.12C1.70667 1.13333 1.62 1.18 1.58 1.26C1.54 1.32667 1.49333 1.44667 1.44 1.62L0.8 3.84H0.24V0.4Z"/>
</mask>
<path d="M0.24 0.4H11.24V3.84H10.68L10.04 1.62C10 1.44667 9.95333 1.32667 9.9 1.26C9.86 1.18 9.77333 1.13333 9.64 1.12C9.50667 1.10667 9.28 1.1 8.96 1.1H6.94V12.32C6.94 12.7733 6.96 13.0467 7 13.14C7.04 13.22 7.16667 13.2733 7.38 13.3L8.48 13.44V14H3V13.44L4.1 13.3C4.31333 13.2733 4.44 13.22 4.48 13.14C4.52 13.0467 4.54 12.7733 4.54 12.32V1.1H2.52C2.21333 1.1 1.98667 1.10667 1.84 1.12C1.70667 1.13333 1.62 1.18 1.58 1.26C1.54 1.32667 1.49333 1.44667 1.44 1.62L0.8 3.84H0.24V0.4Z" fill="white"/>
<path d="M0.24 0.4V-0.6H-0.76V0.4H0.24ZM11.24 0.4H12.24V-0.6H11.24V0.4ZM11.24 3.84V4.84H12.24V3.84H11.24ZM10.68 3.84L9.71913 4.11701L9.92756 4.84H10.68V3.84ZM10.04 1.62L9.06561 1.84486L9.07167 1.87112L9.07913 1.89701L10.04 1.62ZM9.9 1.26L9.00558 1.70722L9.05295 1.80197L9.11913 1.88469L9.9 1.26ZM9.64 1.12L9.73951 0.124962L9.7395 0.124962L9.64 1.12ZM6.94 1.1V0.0999992H5.94V1.1H6.94ZM7 13.14L6.08086 13.5339L6.09243 13.5609L6.10557 13.5872L7 13.14ZM7.38 13.3L7.50625 12.308L7.50404 12.3077L7.38 13.3ZM8.48 13.44H9.48V12.5592L8.60625 12.448L8.48 13.44ZM8.48 14V15H9.48V14H8.48ZM3 14H2V15H3V14ZM3 13.44L2.87375 12.448L2 12.5592V13.44H3ZM4.1 13.3L3.97597 12.3077L3.97375 12.308L4.1 13.3ZM4.48 13.14L5.37443 13.5872L5.38757 13.5609L5.39914 13.5339L4.48 13.14ZM4.54 1.1H5.54V0.0999992H4.54V1.1ZM1.84 1.12L1.74946 0.124065L1.74049 0.124962L1.84 1.12ZM1.58 1.26L2.43749 1.7745L2.45725 1.74156L2.47443 1.70721L1.58 1.26ZM1.44 1.62L0.484221 1.32591L0.481601 1.33443L0.479132 1.34299L1.44 1.62ZM0.8 3.84V4.84H1.55244L1.76087 4.11701L0.8 3.84ZM0.24 3.84H-0.76V4.84H0.24V3.84ZM0.24 1.4H11.24V-0.6H0.24V1.4ZM10.24 0.4V3.84H12.24V0.4H10.24ZM11.24 2.84H10.68V4.84H11.24V2.84ZM11.6409 3.56299L11.0009 1.34299L9.07913 1.89701L9.71913 4.11701L11.6409 3.56299ZM11.0144 1.39514C10.9695 1.20068 10.8841 0.889315 10.6809 0.635306L9.11913 1.88469C9.08656 1.84398 9.06703 1.81044 9.05727 1.79222C9.05205 1.78247 9.04848 1.77496 9.04633 1.77023C9.04417 1.76546 9.04311 1.76275 9.043 1.76245C9.0429 1.76219 9.04538 1.76862 9.04973 1.78335C9.05402 1.79787 9.05943 1.8181 9.06561 1.84486L11.0144 1.39514ZM10.7944 0.812782C10.534 0.29192 10.0323 0.154243 9.73951 0.124962L9.54049 2.11504C9.52045 2.11303 9.43743 2.10283 9.3309 2.04547C9.21194 1.98141 9.08696 1.86998 9.00558 1.70722L10.7944 0.812782ZM9.7395 0.124962C9.55153 0.106164 9.28037 0.0999992 8.96 0.0999992V2.1C9.27963 2.1 9.46181 2.10717 9.5405 2.11504L9.7395 0.124962ZM8.96 0.0999992H6.94V2.1H8.96V0.0999992ZM5.94 1.1V12.32H7.94V1.1H5.94ZM5.94 12.32C5.94 12.5575 5.94512 12.7665 5.95767 12.938C5.96646 13.0581 5.98571 13.3119 6.08086 13.5339L7.91914 12.7461C7.94118 12.7975 7.95163 12.8364 7.95539 12.8513C7.95973 12.8684 7.96106 12.8774 7.96062 12.8748C7.95959 12.8685 7.95608 12.8432 7.95233 12.792C7.94488 12.6901 7.94 12.5358 7.94 12.32H5.94ZM6.10557 13.5872C6.27669 13.9294 6.56662 14.0899 6.73694 14.1616C6.91814 14.2379 7.10346 14.2732 7.25597 14.2923L7.50404 12.3077C7.44321 12.3001 7.45853 12.2954 7.51306 12.3184C7.55672 12.3367 7.76331 12.4306 7.89443 12.6928L6.10557 13.5872ZM7.25375 14.292L8.35375 14.432L8.60625 12.448L7.50625 12.308L7.25375 14.292ZM7.48 13.44V14H9.48V13.44H7.48ZM8.48 13H3V15H8.48V13ZM4 14V13.44H2V14H4ZM3.12625 14.432L4.22625 14.292L3.97375 12.308L2.87375 12.448L3.12625 14.432ZM4.22403 14.2923C4.37654 14.2732 4.56186 14.2379 4.74306 14.1616C4.91338 14.0899 5.20331 13.9294 5.37443 13.5872L3.58557 12.6928C3.71669 12.4306 3.92328 12.3367 3.96694 12.3184C4.02147 12.2954 4.03679 12.3001 3.97597 12.3077L4.22403 14.2923ZM5.39914 13.5339C5.4943 13.3119 5.51354 13.0581 5.52233 12.938C5.53488 12.7665 5.54 12.5575 5.54 12.32H3.54C3.54 12.5358 3.53512 12.6901 3.52767 12.792C3.52392 12.8432 3.52041 12.8685 3.51938 12.8748C3.51894 12.8774 3.52027 12.8684 3.52461 12.8513C3.52837 12.8364 3.53882 12.7975 3.56086 12.7461L5.39914 13.5339ZM5.54 12.32V1.1H3.54V12.32H5.54ZM4.54 0.0999992H2.52V2.1H4.54V0.0999992ZM2.52 0.0999992C2.2081 0.0999992 1.94369 0.106449 1.74947 0.124106L1.93053 2.11589C2.02965 2.10688 2.21857 2.1 2.52 2.1V0.0999992ZM1.74049 0.124962C1.4477 0.154243 0.946007 0.29192 0.685573 0.812785L2.47443 1.70721C2.39305 1.86998 2.26806 1.98141 2.1491 2.04547C2.04257 2.10283 1.95955 2.11303 1.93951 2.11504L1.74049 0.124962ZM0.722507 0.745504C0.614122 0.926146 0.53829 1.15019 0.484221 1.32591L2.39578 1.91409C2.41796 1.84199 2.43514 1.79296 2.447 1.76245C2.45278 1.74759 2.45577 1.74109 2.45576 1.74111C2.45566 1.74133 2.45429 1.74427 2.4516 1.74943C2.44896 1.7545 2.4443 1.76315 2.43749 1.7745L0.722507 0.745504ZM0.479132 1.34299L-0.160868 3.56299L1.76087 4.11701L2.40087 1.89701L0.479132 1.34299ZM0.8 2.84H0.24V4.84H0.8V2.84ZM1.24 3.84V0.4H-0.76V3.84H1.24Z" fill="white" mask="url(#path-1-outside-1_4_4)"/>
</g>
<defs>
<filter id="filter0_b_4_4" x="-3.75999" y="-3.6" width="19" height="21.6" filterUnits="userSpaceOnUse" color-interpolation-filters="sRGB">
<feFlood flood-opacity="0" result="BackgroundImageFix"/>
<feGaussianBlur in="BackgroundImageFix" stdDeviation="2"/>
<feComposite in2="SourceAlpha" operator="in"/>
<feBlend mode="normal" in="SourceGraphic" result="shape"/>
</filter>
</defs>
</svg>
